<?xml version="1.0"?>
<svg xmlns="http://www.w3.org/2000/svg" xmlns:xlink="http://www.w3.org/1999/xlink" xmlns:svgjs="http://svgjs.com/svgjs" version="1.1" width="512" height="512" x="0" y="0" viewBox="0 0 512 512" style="enable-background:new 0 0 512 512" xml:space="preserve" class=""><g><g xmlns="http://www.w3.org/2000/svg"><path d="m498.311 404.166h-17.755v-256.441c0-14.219-11.567-25.786-25.786-25.786h-67.829v-45.811c0-9.491-7.722-17.213-17.213-17.213h-227.457c-9.491 0-17.213 7.722-17.213 17.213v45.811h-67.829c-14.219 0-25.786 11.568-25.786 25.786v34.121c0 4.142 3.357 7.5 7.5 7.5 4.142 0 7.5-3.358 7.5-7.5v-34.121c0-5.948 4.839-10.786 10.786-10.786h67.829v17h-45.737c-8.755 0-15.878 7.123-15.878 15.878v234.349h-17v-192.32c0-4.142-3.358-7.5-7.5-7.5-4.143 0-7.5 3.358-7.5 7.5v192.32h-17.754c-7.548 0-13.689 6.141-13.689 13.688v13.04c0 12.236 9.955 22.191 22.191 22.191h402.434c4.143 0 7.5-3.358 7.5-7.5s-3.357-7.5-7.5-7.5h-117.259v-18.919h189.634v11.728c0 3.965-3.227 7.191-7.191 7.191h-35.184c-4.143 0-7.5 3.358-7.5 7.5s3.357 7.5 7.5 7.5h35.184c12.236 0 22.191-9.955 22.191-22.191v-13.04c0-7.547-6.141-13.688-13.689-13.688zm-43.54-267.227c5.947 0 10.786 4.839 10.786 10.786v256.441h-17v-234.349c0-8.755-7.123-15.878-15.878-15.878h-45.737v-17zm-314.712-60.811c0-1.22.993-2.213 2.213-2.213h227.457c1.22 0 2.213.993 2.213 2.213v328.038h-231.883zm-61.616 93.689c0-.484.394-.878.878-.878h45.737v235.227h-46.615zm-63.443 261.077v-11.728h189.634v18.919h-182.443c-3.964 0-7.191-3.226-7.191-7.191zm277.366 7.191h-72.732v-18.919h72.732zm94.575-33.919v-235.227h45.737c.484 0 .878.394.878.878v234.349z" fill="#ffffff" data-original="#000000" style=""/><path d="m198.061 102.306h-20.291c-7.268 0-13.183 5.914-13.183 13.182v20.292c0 7.269 5.914 13.182 13.183 13.182h20.292c7.269 0 13.182-5.914 13.182-13.182v-20.292c-.001-7.268-5.914-13.182-13.183-13.182zm-1.818 31.656h-16.656v-16.656h16.656z" fill="#ffffff" data-original="#000000" style=""/><path d="m198.061 178.436h-20.291c-7.268 0-13.183 5.913-13.183 13.182v20.292c0 7.269 5.914 13.182 13.183 13.182h20.292c7.269 0 13.182-5.914 13.182-13.182v-20.292c-.001-7.268-5.914-13.182-13.183-13.182zm-1.818 31.656h-16.656v-16.656h16.656z" fill="#ffffff" data-original="#000000" style=""/><path d="m198.061 254.566h-20.291c-7.268 0-13.183 5.914-13.183 13.182v20.292c0 7.268 5.914 13.182 13.183 13.182h20.292c7.269 0 13.182-5.914 13.182-13.182v-20.292c-.001-7.268-5.914-13.182-13.183-13.182zm-1.818 31.656h-16.656v-16.656h16.656z" fill="#ffffff" data-original="#000000" style=""/><path d="m198.061 330.696h-20.291c-7.268 0-13.183 5.914-13.183 13.182v20.292c0 7.269 5.914 13.182 13.183 13.182h20.292c7.269 0 13.182-5.914 13.182-13.182v-20.292c-.001-7.269-5.914-13.182-13.183-13.182zm-1.818 31.656h-16.656v-16.656h16.656z" fill="#ffffff" data-original="#000000" style=""/><path d="m345.686 105.306h-113.335c-4.143 0-7.5 3.358-7.5 7.5s3.357 7.5 7.5 7.5h113.336c4.143 0 7.5-3.358 7.5-7.5-.001-4.142-3.358-7.5-7.501-7.5z" fill="#ffffff" data-original="#000000" style=""/><path d="m232.351 148.962h29.023c4.143 0 7.5-3.358 7.5-7.5s-3.357-7.5-7.5-7.5h-29.023c-4.143 0-7.5 3.358-7.5 7.5s3.357 7.5 7.5 7.5z" fill="#ffffff" data-original="#000000" style=""/><path d="m345.686 179.936h-113.335c-4.143 0-7.5 3.358-7.5 7.5s3.357 7.5 7.5 7.5h113.336c4.143 0 7.5-3.358 7.5-7.5-.001-4.142-3.358-7.5-7.501-7.5z" fill="#ffffff" data-original="#000000" style=""/><path d="m232.351 223.592h29.023c4.143 0 7.5-3.358 7.5-7.5s-3.357-7.5-7.5-7.5h-29.023c-4.143 0-7.5 3.358-7.5 7.5s3.357 7.5 7.5 7.5z" fill="#ffffff" data-original="#000000" style=""/><path d="m345.686 256.066h-113.335c-4.143 0-7.5 3.358-7.5 7.5s3.357 7.5 7.5 7.5h113.336c4.143 0 7.5-3.358 7.5-7.5-.001-4.142-3.358-7.5-7.501-7.5z" fill="#ffffff" data-original="#000000" style=""/><path d="m232.351 299.722h29.023c4.143 0 7.5-3.358 7.5-7.5s-3.357-7.5-7.5-7.5h-29.023c-4.143 0-7.5 3.358-7.5 7.5s3.357 7.5 7.5 7.5z" fill="#ffffff" data-original="#000000" style=""/><path d="m345.686 332.196h-113.335c-4.143 0-7.5 3.358-7.5 7.5s3.357 7.5 7.5 7.5h113.336c4.143 0 7.5-3.358 7.5-7.5-.001-4.142-3.358-7.5-7.501-7.5z" fill="#ffffff" data-original="#000000" style=""/><path d="m261.374 360.852h-29.023c-4.143 0-7.5 3.358-7.5 7.5s3.357 7.5 7.5 7.5h29.023c4.143 0 7.5-3.358 7.5-7.5s-3.357-7.5-7.5-7.5z" fill="#ffffff" data-original="#000000" style=""/></g></g></svg>
